<svg viewBox="-5 -50 200 612" xmlns="http://www.w3.org/2000/svg"><path d="m97.027344 512c-8.28125 0-15-6.714844-15-15v-91.785156c0-8.285156 6.71875-15 15-15 8.285156 0 15 6.714844 15 15v91.785156c0 8.285156-6.714844 15-15 15zm0 0" fill="#e3f1ff"/><path d="m112.027344 497v-91.785156c0-8.285156-6.714844-15-15-15v121.785156c8.285156 0 15-6.714844 15-15zm0 0" fill="#bbdcff"/><path d="m116.972656 420.214844h-39.886718c-8.285157 0-15-6.714844-15-15v-37.316406c0-8.285157 6.714843-15 15-15h39.886718c8.285156 0 15 6.714843 15 15v37.316406c0 8.285156-6.714844 15-15 15zm0 0" fill="#f2f2fc"/><path d="m116.972656 420.214844c8.285156 0 15-6.714844 15-15v-37.316406c0-8.285157-6.714844-15-15-15h-19.945312v67.316406zm0 0" fill="#d7e9ff"/><path d="m158.324219 382.898438h-122.589844c-8.285156 0-15-6.71875-15-15v-259.886719c0-8.285157 6.714844-15 15-15h122.589844c8.28125 0 15 6.714843 15 15v259.886719c0 8.285156-6.71875 15-15 15zm0 0" fill="#ffdb2d"/><path d="m158.324219 93.011719h-61.296875v289.886719h61.296875c8.28125 0 15-6.714844 15-15v-259.886719c0-8.285157-6.71875-15-15-15zm0 0" fill="#fdbf00"/><g fill="#17aac8"><path d="m128.03125 157.253906c0 8.28125 6.71875 15 15 15h30.292969v-30h-30.292969c-8.285156 0-15 6.714844-15 15zm0 0"/><path d="m128.03125 256.417969c0 8.285156 6.71875 15 15 15h30.292969v-30h-30.292969c-8.285156 0-15 6.71875-15 15zm0 0"/><path d="m105.027344 311.8125c0 8.285156 6.71875 15 15 15h53.296875v-30h-53.296875c-8.28125 0-15 6.714844-15 15zm0 0"/><path d="m105.027344 206.492188c0 8.285156 6.71875 15 15 15h53.296875v-30h-53.296875c-8.28125 0-15 6.71875-15 15zm0 0"/></g><path d="m125.867188 123.011719h-57.675782c-8.285156 0-15-6.714844-15-15v-93.011719c0-8.285156 6.714844-15 15-15h57.675782c8.28125 0 15 6.714844 15 15v93.011719c0 8.285156-6.71875 15-15 15zm0 0" fill="#f2f2fc"/><path d="m125.867188 0h-28.839844v123.011719h28.839844c8.28125 0 15-6.714844 15-15v-93.011719c0-8.285156-6.71875-15-15-15zm0 0" fill="#d7e9ff"/><path d="m178.558594 123.011719h-163.058594c-8.285156 0-15-6.714844-15-15 0-8.285157 6.714844-15 15-15h163.058594c8.285156 0 15 6.714843 15 15 0 8.285156-6.714844 15-15 15zm0 0" fill="#00d7e0"/><path d="m148.503906 30h-102.949218c-8.285157 0-15-6.714844-15-15s6.714843-15 15-15h102.949218c8.285156 0 15 6.714844 15 15s-6.714844 15-15 15zm0 0" fill="#00d7e0"/><path d="m178.558594 93.011719h-81.53125v30h81.53125c8.285156 0 15-6.714844 15-15 0-8.285157-6.714844-15-15-15zm0 0" fill="#17aac8"/><path d="m163.503906 15c0-8.285156-6.714844-15-15-15h-51.476562v30h51.476562c8.285156 0 15-6.714844 15-15zm0 0" fill="#17aac8"/></svg>